<?xml version="1.0" encoding="utf-8"?>
<!-- Generator: Adobe Illustrator 22.0.1, SVG Export Plug-In . SVG Version: 6.00 Build 0)  -->
<svg version="1.1" id="Слой_1" xmlns="http://www.w3.org/2000/svg" xmlns:xlink="http://www.w3.org/1999/xlink" x="0px" y="0px"
	 viewBox="0 0 348.9 70.5" style="enable-background:new 0 0 348.9 70.5;" xml:space="preserve">
<style type="text/css">
	.st0{fill:#732AAC;}
	.st1{fill:#FFFFFF;}
	.st2{font-family:'Calibri';}
	.st3{font-size:36px;}
	.st4{fill:#732AAC;stroke:#732AAC;stroke-miterlimit:10;}
</style>
<g>
	<rect x="0.2" y="-0.2" class="st0" width="348" height="70"/>
	<path class="st0" d="M347.7,0.3v69H0.7v-69H347.7 M348.7-0.7h-349v71h349V-0.7L348.7-0.7z"/>
</g>
<text transform="matrix(1 0 0 1 60.193 46.3333)" class="st1 st2 st3">MOBILE STORE</text>
<rect x="88.7" y="17.3" class="st4" width="26.5" height="34"/>
<g>
	<g>
		<path class="st1" d="M102.8,21.3c-6.7,0-12.2,5.7-12.2,12.7c0,7,5.4,12.7,12.2,12.7c6.7,0,12.2-5.7,12.2-12.7
			C115,27,109.6,21.3,102.8,21.3z M101.8,22.8h2V34h-2V22.8z M102.8,44.1c-5.4,0-9.7-4.5-9.7-10.1c0-3.8,2-7.3,5.3-9l0.9,1.9
			c-2.6,1.4-4.2,4.1-4.2,7.2c0,4.4,3.5,8,7.7,8c4.3,0,7.7-3.6,7.7-8c0-3-1.6-5.8-4.2-7.2l0.9-1.9c3.3,1.7,5.3,5.2,5.3,9
			C112.6,39.6,108.2,44.1,102.8,44.1z"/>
	</g>
</g>
</svg>
